<svg width="588" height="398" viewBox="0 0 588 398" fill="none" xmlns="http://www.w3.org/2000/svg">
<g clip-path="url(#clip0_422_42)">
<path d="M54.0889 168.352C62.15 166.192 66.9338 157.906 64.7739 149.845C62.6139 141.784 54.3281 137 46.267 139.16C38.2059 141.32 33.4221 149.606 35.5821 157.667C37.7421 165.728 46.0279 170.512 54.0889 168.352ZM54.0889 168.352L56.0444 175.65M69.7328 226.736L67.7773 219.438" stroke="#AEFE06" stroke-opacity="0.1" stroke-width="15.1108" stroke-linecap="round" stroke-linejoin="round"/>
<path d="M88.2397 237.421C86.0797 229.359 77.7939 224.576 69.7329 226.736C61.6718 228.896 56.888 237.181 59.0479 245.242C61.2079 253.304 69.4937 258.087 77.5548 255.927C85.6159 253.767 90.3997 245.482 88.2397 237.421ZM88.2397 237.421L95.5376 235.465" stroke="#AEFE06" stroke-opacity="0.1" stroke-width="15.1108" stroke-linecap="round" stroke-linejoin="round"/>
<path d="M157.308 203.27C165.369 201.11 173.655 205.894 175.815 213.955C177.975 222.016 173.191 230.302 165.13 232.462C157.069 234.622 148.783 229.838 146.623 221.777M157.308 203.27C149.247 205.43 144.463 213.716 146.623 221.777M157.308 203.27L155.353 195.972M146.623 221.777L139.325 223.732" stroke="#AEFE06" stroke-opacity="0.1" stroke-width="15.1108" stroke-linecap="round" stroke-linejoin="round"/>
<circle cx="61.9109" cy="197.544" r="7.55539" transform="rotate(-15 61.9109 197.544)" fill="#AEFE06" fill-opacity="0.1"/>
<circle cx="117.431" cy="229.599" r="7.55539" transform="rotate(-15 117.431 229.599)" fill="#AEFE06" fill-opacity="0.1"/>
<path d="M166.945 122.469C172.051 141.524 149.486 174.078 149.486 174.078C149.486 174.078 113.668 157.168 108.562 138.112C103.456 119.057 113.809 105.419 129.932 101.099C146.054 96.7788 161.839 103.413 166.945 122.469Z" stroke="#AEFE06" stroke-opacity="0.1" stroke-width="15.1108" stroke-linecap="round" stroke-linejoin="round"/>
<circle cx="137.753" cy="130.29" r="7.55539" transform="rotate(-15 137.753 130.29)" fill="#AEFE06" fill-opacity="0.1"/>
</g>
<path d="M381.347 127.155L468.814 83.4698C490.772 72.5032 517.462 81.4132 528.429 103.371V103.371C539.396 125.329 530.486 152.019 508.528 162.986L446.598 193.917C440.508 196.958 436.132 202.602 434.702 209.257L415.326 299.487C413.896 306.142 409.52 311.786 403.431 314.827L379.058 327C364.877 334.082 348.027 324.603 346.718 308.806L344.278 279.366C342.969 263.569 326.118 254.089 311.938 261.172L259.342 287.44C251.324 291.445 241.69 290.286 234.851 284.493L168.745 228.507C156.471 218.112 158.824 198.552 173.215 191.365L194.041 180.963C201.633 177.172 210.716 177.995 217.503 183.09L227.143 190.326C233.93 195.421 243.013 196.245 250.606 192.453L301.83 166.869M381.347 127.155L311.884 92.385C305.577 89.2283 298.153 89.2249 291.843 92.376L270.686 102.943C255.785 110.385 253.925 130.907 267.246 140.906L301.83 166.869M381.347 127.155L301.83 166.869" stroke="url(#paint0_linear_422_42)" stroke-width="44.8113" stroke-linecap="round" stroke-linejoin="round"/>
<defs>
<linearGradient id="paint0_linear_422_42" x1="535.399" y1="87.3244" x2="192.304" y2="281.538" gradientUnits="userSpaceOnUse">
<stop stop-color="#AEFE06"/>
<stop offset="0.849525" stop-color="#689804"/>
</linearGradient>
<clipPath id="clip0_422_42">
<rect width="181.329" height="181.329" fill="white" transform="translate(0 112.448) rotate(-15)"/>
</clipPath>
</defs>
</svg>
