<svg width="512" height="512" viewBox="0 0 512 512" fill="none" xmlns="http://www.w3.org/2000/svg">
<rect width="512" height="512" rx="256" fill="#18212A"/>
<path d="M307 205H400.5C423.972 205 443 224.028 443 247.5V247.5C443 270.972 423.972 290 400.5 290H334.298C327.789 290 321.633 292.959 317.567 298.042L262.433 366.958C258.367 372.041 252.211 375 245.702 375H219.648C204.49 375 194.124 359.69 199.754 345.615L210.246 319.385C215.876 305.31 205.51 290 190.351 290H134.129C125.557 290 117.811 284.892 114.434 277.013L81.8004 200.868C75.7408 186.729 86.1121 171 101.495 171H123.757C131.873 171 139.293 175.586 142.922 182.845L148.078 193.155C151.707 200.415 159.127 205 167.243 205H222M307 205L262.428 145.571C258.381 140.175 252.031 137 245.286 137H222.67C206.741 137 196.381 153.763 203.505 168.01L222 205M307 205H222" stroke="#AEFE06" stroke-width="42.8541" stroke-linecap="round" stroke-linejoin="round"/>
</svg>
