<svg width="199" height="44" viewBox="0 0 199 44" fill="none" xmlns="http://www.w3.org/2000/svg">
<path d="M37.6364 14.3636H51.6364C55.1509 14.3636 58 17.2127 58 20.7273V20.7273C58 24.2418 55.1509 27.0909 51.6364 27.0909H41.7238C40.7492 27.0909 39.8274 27.534 39.2185 28.295L30.9633 38.6141C30.3544 39.3751 29.4326 39.8182 28.458 39.8182H24.557C22.2872 39.8182 20.7352 37.5258 21.5781 35.4183L23.1491 31.4908C23.9921 29.3834 22.4401 27.0909 20.1703 27.0909H11.7519C10.4685 27.0909 9.30857 26.3261 8.803 25.1464L3.91664 13.7449C3.00932 11.6278 4.56225 9.27273 6.86556 9.27273H10.199C11.4142 9.27273 12.5251 9.95933 13.0686 11.0463L13.8405 12.5901C14.384 13.6771 15.4949 14.3636 16.7101 14.3636H24.9091M37.6364 14.3636L30.9625 5.46516C30.3566 4.65728 29.4057 4.18182 28.3958 4.18182H25.0094C22.6244 4.18182 21.0731 6.69174 22.1398 8.82497L24.9091 14.3636M37.6364 14.3636H24.9091" stroke="#AEFE06" stroke-width="6.41667" stroke-linecap="round" stroke-linejoin="round"/>
<path d="M74.384 30.528C74.2773 30.528 74.1813 30.496 74.096 30.432C74.032 30.3467 74 30.2507 74 30.144V8.51203C74 8.40536 74.032 8.32003 74.096 8.25603C74.1813 8.1707 74.2773 8.12803 74.384 8.12803H78.128C78.2347 8.12803 78.32 8.1707 78.384 8.25603C78.4693 8.32003 78.512 8.40536 78.512 8.51203V26.496C78.512 26.6027 78.5653 26.656 78.672 26.656H89.136C89.2427 26.656 89.328 26.6987 89.392 26.784C89.4773 26.848 89.52 26.9334 89.52 27.04V30.144C89.52 30.2507 89.4773 30.3467 89.392 30.432C89.328 30.496 89.2427 30.528 89.136 30.528H74.384Z" fill="white"/>
<path d="M99.2885 30.784C97.4965 30.784 95.9605 30.3147 94.6805 29.376C93.4005 28.4374 92.5258 27.1574 92.0565 25.536C91.7578 24.5334 91.6085 23.4454 91.6085 22.272C91.6085 21.0134 91.7578 19.8827 92.0565 18.88C92.5472 17.3014 93.4325 16.064 94.7125 15.168C95.9925 14.272 97.5285 13.824 99.3205 13.824C101.07 13.824 102.563 14.272 103.801 15.168C105.038 16.0427 105.912 17.2694 106.424 18.848C106.766 19.9147 106.937 21.0347 106.937 22.208C106.937 23.36 106.787 24.4374 106.488 25.44C106.019 27.104 105.145 28.416 103.865 29.376C102.606 30.3147 101.08 30.784 99.2885 30.784ZM99.2885 26.912C99.9925 26.912 100.59 26.6987 101.08 26.272C101.571 25.8454 101.923 25.2587 102.137 24.512C102.307 23.8294 102.392 23.0827 102.392 22.272C102.392 21.376 102.307 20.6187 102.137 20C101.902 19.2747 101.539 18.7094 101.049 18.304C100.558 17.8987 99.9605 17.696 99.2565 17.696C98.5312 17.696 97.9232 17.8987 97.4325 18.304C96.9632 18.7094 96.6218 19.2747 96.4085 20C96.2378 20.512 96.1525 21.2694 96.1525 22.272C96.1525 23.232 96.2272 23.9787 96.3765 24.512C96.5898 25.2587 96.9418 25.8454 97.4325 26.272C97.9445 26.6987 98.5632 26.912 99.2885 26.912Z" fill="white"/>
<path d="M119.885 14.464C119.885 14.3574 119.917 14.272 119.981 14.208C120.066 14.1227 120.162 14.08 120.269 14.08H124.013C124.12 14.08 124.205 14.1227 124.269 14.208C124.354 14.272 124.397 14.3574 124.397 14.464V29.056C124.397 31.8507 123.586 33.8454 121.965 35.04C120.365 36.2347 118.296 36.832 115.757 36.832C115.01 36.832 114.178 36.7787 113.261 36.672C113.048 36.6507 112.941 36.512 112.941 36.256L113.069 32.96C113.069 32.6827 113.218 32.5654 113.517 32.608C114.285 32.736 114.989 32.8 115.629 32.8C116.994 32.8 118.04 32.5014 118.765 31.904C119.512 31.3067 119.885 30.3467 119.885 29.024C119.885 28.96 119.864 28.928 119.821 28.928C119.778 28.9067 119.736 28.9174 119.693 28.96C118.882 29.8347 117.698 30.272 116.141 30.272C114.754 30.272 113.474 29.9414 112.301 29.28C111.149 28.5974 110.328 27.5094 109.837 26.016C109.517 25.0347 109.357 23.7654 109.357 22.208C109.357 20.544 109.549 19.1894 109.933 18.144C110.381 16.8427 111.138 15.7974 112.205 15.008C113.272 14.2187 114.509 13.824 115.917 13.824C117.56 13.824 118.818 14.3147 119.693 15.296C119.736 15.3387 119.778 15.36 119.821 15.36C119.864 15.3387 119.885 15.296 119.885 15.232V14.464ZM119.629 24.8C119.8 24.16 119.885 23.2854 119.885 22.176C119.885 21.5147 119.864 21.0027 119.821 20.64C119.778 20.2774 119.704 19.936 119.597 19.616C119.405 19.04 119.085 18.5814 118.637 18.24C118.189 17.8774 117.634 17.696 116.973 17.696C116.333 17.696 115.789 17.8774 115.341 18.24C114.893 18.5814 114.562 19.04 114.349 19.616C114.05 20.256 113.901 21.12 113.901 22.208C113.901 23.4027 114.029 24.256 114.285 24.768C114.477 25.344 114.808 25.8134 115.277 26.176C115.768 26.5174 116.344 26.688 117.005 26.688C117.688 26.688 118.253 26.5174 118.701 26.176C119.149 25.8134 119.458 25.3547 119.629 24.8Z" fill="white"/>
<path d="M134.882 30.784C133.09 30.784 131.554 30.3147 130.274 29.376C128.994 28.4374 128.12 27.1574 127.65 25.536C127.352 24.5334 127.202 23.4454 127.202 22.272C127.202 21.0134 127.352 19.8827 127.65 18.88C128.141 17.3014 129.026 16.064 130.306 15.168C131.586 14.272 133.122 13.824 134.914 13.824C136.664 13.824 138.157 14.272 139.394 15.168C140.632 16.0427 141.506 17.2694 142.018 18.848C142.36 19.9147 142.53 21.0347 142.53 22.208C142.53 23.36 142.381 24.4374 142.082 25.44C141.613 27.104 140.738 28.416 139.458 29.376C138.2 30.3147 136.674 30.784 134.882 30.784ZM134.882 26.912C135.586 26.912 136.184 26.6987 136.674 26.272C137.165 25.8454 137.517 25.2587 137.73 24.512C137.901 23.8294 137.986 23.0827 137.986 22.272C137.986 21.376 137.901 20.6187 137.73 20C137.496 19.2747 137.133 18.7094 136.642 18.304C136.152 17.8987 135.554 17.696 134.85 17.696C134.125 17.696 133.517 17.8987 133.026 18.304C132.557 18.7094 132.216 19.2747 132.002 20C131.832 20.512 131.746 21.2694 131.746 22.272C131.746 23.232 131.821 23.9787 131.97 24.512C132.184 25.2587 132.536 25.8454 133.026 26.272C133.538 26.6987 134.157 26.912 134.882 26.912Z" fill="white"/>
<path d="M154.433 17.312C154.433 17.4187 154.391 17.5147 154.305 17.6C154.241 17.664 154.156 17.696 154.049 17.696H150.977C150.871 17.696 150.817 17.7494 150.817 17.856V24.64C150.817 25.344 150.956 25.8667 151.233 26.208C151.532 26.5494 152.001 26.72 152.641 26.72H153.697C153.804 26.72 153.889 26.7627 153.953 26.848C154.039 26.912 154.081 26.9974 154.081 27.104V30.144C154.081 30.3787 153.953 30.5174 153.697 30.56C152.801 30.6027 152.161 30.624 151.777 30.624C150.007 30.624 148.684 30.336 147.809 29.76C146.935 29.1627 146.487 28.0534 146.465 26.432V17.856C146.465 17.7494 146.412 17.696 146.305 17.696H144.481C144.375 17.696 144.279 17.664 144.193 17.6C144.129 17.5147 144.097 17.4187 144.097 17.312V14.464C144.097 14.3574 144.129 14.272 144.193 14.208C144.279 14.1227 144.375 14.08 144.481 14.08H146.305C146.412 14.08 146.465 14.0267 146.465 13.92V10.112C146.465 10.0054 146.497 9.92003 146.561 9.85603C146.647 9.7707 146.743 9.72803 146.849 9.72803H150.433C150.54 9.72803 150.625 9.7707 150.689 9.85603C150.775 9.92003 150.817 10.0054 150.817 10.112V13.92C150.817 14.0267 150.871 14.08 150.977 14.08H154.049C154.156 14.08 154.241 14.1227 154.305 14.208C154.391 14.272 154.433 14.3574 154.433 14.464V17.312Z" fill="white"/>
<path d="M159.581 12.224C158.856 12.224 158.248 11.9894 157.757 11.52C157.288 11.0294 157.053 10.4214 157.053 9.69603C157.053 8.94936 157.288 8.34136 157.757 7.87203C158.227 7.4027 158.835 7.16803 159.581 7.16803C160.328 7.16803 160.936 7.4027 161.406 7.87203C161.875 8.34136 162.109 8.94936 162.109 9.69603C162.109 10.4214 161.864 11.0294 161.373 11.52C160.904 11.9894 160.307 12.224 159.581 12.224ZM157.661 30.528C157.555 30.528 157.459 30.496 157.373 30.432C157.309 30.3467 157.277 30.2507 157.277 30.144V14.432C157.277 14.3254 157.309 14.24 157.373 14.176C157.459 14.0907 157.555 14.048 157.661 14.048H161.406C161.512 14.048 161.597 14.0907 161.661 14.176C161.747 14.24 161.789 14.3254 161.789 14.432V30.144C161.789 30.2507 161.747 30.3467 161.661 30.432C161.597 30.496 161.512 30.528 161.406 30.528H157.661Z" fill="white"/>
<path d="M179.994 18.496C180.378 19.584 180.57 20.864 180.57 22.336C180.57 23.808 180.367 25.1414 179.962 26.336C179.471 27.7014 178.692 28.7894 177.626 29.6C176.58 30.3894 175.279 30.784 173.722 30.784C172.186 30.784 170.991 30.2507 170.138 29.184C170.095 29.12 170.052 29.0987 170.01 29.12C169.967 29.1414 169.946 29.184 169.946 29.248V36.096C169.946 36.2027 169.903 36.288 169.818 36.352C169.754 36.4374 169.668 36.48 169.562 36.48H165.818C165.711 36.48 165.615 36.4374 165.53 36.352C165.466 36.288 165.434 36.2027 165.434 36.096V14.464C165.434 14.3574 165.466 14.272 165.53 14.208C165.615 14.1227 165.711 14.08 165.818 14.08H169.562C169.668 14.08 169.754 14.1227 169.818 14.208C169.903 14.272 169.946 14.3574 169.946 14.464V15.52C169.946 15.584 169.967 15.6267 170.01 15.648C170.052 15.648 170.095 15.6267 170.138 15.584C171.034 14.4107 172.271 13.824 173.85 13.824C175.322 13.824 176.591 14.24 177.658 15.072C178.746 15.8827 179.524 17.024 179.994 18.496ZM175.098 25.664C175.631 24.832 175.898 23.7014 175.898 22.272C175.898 20.928 175.674 19.8614 175.226 19.072C174.735 18.1547 173.946 17.696 172.858 17.696C171.876 17.696 171.14 18.1547 170.65 19.072C170.202 19.84 169.978 20.9174 169.978 22.304C169.978 23.7334 170.212 24.8427 170.682 25.632C171.172 26.4854 171.898 26.912 172.858 26.912C173.818 26.912 174.564 26.496 175.098 25.664Z" fill="white"/>
<path d="M190.663 30.784C188.871 30.784 187.335 30.3147 186.055 29.376C184.775 28.4374 183.901 27.1574 183.432 25.536C183.133 24.5334 182.983 23.4454 182.983 22.272C182.983 21.0134 183.133 19.8827 183.432 18.88C183.922 17.3014 184.808 16.064 186.088 15.168C187.368 14.272 188.904 13.824 190.696 13.824C192.445 13.824 193.938 14.272 195.175 15.168C196.413 16.0427 197.287 17.2694 197.799 18.848C198.141 19.9147 198.312 21.0347 198.312 22.208C198.312 23.36 198.162 24.4374 197.864 25.44C197.394 27.104 196.52 28.416 195.24 29.376C193.981 30.3147 192.455 30.784 190.663 30.784ZM190.663 26.912C191.367 26.912 191.965 26.6987 192.455 26.272C192.946 25.8454 193.298 25.2587 193.511 24.512C193.682 23.8294 193.768 23.0827 193.768 22.272C193.768 21.376 193.682 20.6187 193.511 20C193.277 19.2747 192.914 18.7094 192.424 18.304C191.933 17.8987 191.336 17.696 190.632 17.696C189.906 17.696 189.298 17.8987 188.808 18.304C188.338 18.7094 187.997 19.2747 187.784 20C187.613 20.512 187.527 21.2694 187.527 22.272C187.527 23.232 187.602 23.9787 187.752 24.512C187.965 25.2587 188.317 25.8454 188.808 26.272C189.32 26.6987 189.938 26.912 190.663 26.912Z" fill="white"/>
</svg>
